<?xml version="1.0" encoding="UTF-8" standalone="no"?>
<svg
   xmlns:dc="http://purl.org/dc/elements/1.1/"
   xmlns:cc="http://creativecommons.org/ns#"
   xmlns:rdf="http://www.w3.org/1999/02/22-rdf-syntax-ns#"
   xmlns:svg="http://www.w3.org/2000/svg"
   xmlns="http://www.w3.org/2000/svg"
   xmlns:xlink="http://www.w3.org/1999/xlink"
   xmlns:sodipodi="http://sodipodi.sourceforge.net/DTD/sodipodi-0.dtd"
   xmlns:inkscape="http://www.inkscape.org/namespaces/inkscape"
   version="1.1"
   x="0px"
   y="0px"
   viewBox="0 0 100 100"
   enable-background="new 0 0 100 100"
   xml:space="preserve"
   id="svg3853"
   sodipodi:docname="logo.svg"
   inkscape:version="0.92.2 (5c3e80d, 2017-08-06)"
   width="100"
   height="100"
   inkscape:export-filename="/home/andrei/Dev/TurboAwesomeBar/app/images/icon-128.png"
   inkscape:export-xdpi="122.88"
   inkscape:export-ydpi="122.88"><metadata
     id="metadata3859"><rdf:RDF><cc:Work
         rdf:about=""><dc:format>image/svg+xml</dc:format><dc:type
           rdf:resource="http://purl.org/dc/dcmitype/StillImage" /><dc:title /></cc:Work></rdf:RDF></metadata><defs
     id="defs3857"><linearGradient
       inkscape:collect="always"
       id="linearGradient992"><stop
         style="stop-color:#fff9e9;stop-opacity:1"
         offset="0"
         id="stop988" /><stop
         style="stop-color:#585983;stop-opacity:1"
         offset="1"
         id="stop990" /></linearGradient><linearGradient
       inkscape:collect="always"
       id="linearGradient959"><stop
         style="stop-color:#363959;stop-opacity:1;"
         offset="0"
         id="stop955" /><stop
         style="stop-color:#585983;stop-opacity:0.98445594"
         offset="1"
         id="stop957" /></linearGradient><linearGradient
       inkscape:collect="always"
       id="linearGradient911"><stop
         style="stop-color:#fffaef;stop-opacity:1"
         offset="0"
         id="stop907" /><stop
         style="stop-color:#fff9e9;stop-opacity:1"
         offset="1"
         id="stop909" /></linearGradient><linearGradient
       id="linearGradient865"><stop
         style="stop-color:#003eaa;stop-opacity:1"
         offset="0"
         id="stop863" /><stop
         style="stop-color:#000f40;stop-opacity:1"
         offset="1"
         id="stop861" /></linearGradient><linearGradient
       id="linearGradient991"><stop
         style="stop-color:#00feff;stop-opacity:1"
         offset="0"
         id="stop987" /><stop
         style="stop-color:#00c8d7;stop-opacity:0.99481863"
         offset="1"
         id="stop989" /></linearGradient><linearGradient
       inkscape:collect="always"
       xlink:href="#linearGradient911"
       id="linearGradient919"
       x1="52.671074"
       y1="123.59974"
       x2="49.490078"
       y2="74.673996"
       gradientUnits="userSpaceOnUse"
       gradientTransform="matrix(0.96854005,0,0,0.96993043,1.7180354,2.472901)" /><linearGradient
       inkscape:collect="always"
       xlink:href="#linearGradient959"
       id="linearGradient961"
       x1="15.449883"
       y1="12.392013"
       x2="85.219147"
       y2="86.687134"
       gradientUnits="userSpaceOnUse" /><radialGradient
       inkscape:collect="always"
       xlink:href="#linearGradient992"
       id="radialGradient996"
       cx="49.651157"
       cy="74.901138"
       fx="49.651157"
       fy="74.901138"
       r="49.781721"
       gradientTransform="matrix(1,0,0,0.99852483,0,0.11083311)"
       gradientUnits="userSpaceOnUse" /></defs><sodipodi:namedview
     pagecolor="#ffffff"
     bordercolor="#666666"
     borderopacity="1"
     objecttolerance="10"
     gridtolerance="10"
     guidetolerance="10"
     inkscape:pageopacity="0"
     inkscape:pageshadow="2"
     inkscape:window-width="1920"
     inkscape:window-height="1080"
     id="namedview3855"
     showgrid="false"
     inkscape:zoom="6.808"
     inkscape:cx="69.548269"
     inkscape:cy="43.778034"
     inkscape:window-x="0"
     inkscape:window-y="0"
     inkscape:window-maximized="1"
     inkscape:current-layer="layer1" /><rect
     style="fill:#000000;fill-opacity:0"
     id="rect4666"
     width="90.04113"
     height="71.386604"
     x="0.29377204"
     y="-24.412457" /><g
     inkscape:groupmode="layer"
     id="layer1"
     inkscape:label="bg"
     transform="translate(0,-25)"><ellipse
       style="opacity:0.93699999;fill:url(#linearGradient919);fill-opacity:1;stroke:url(#radialGradient996);stroke-width:3.39232254;stroke-miterlimit:4;stroke-dasharray:none;stroke-opacity:1"
       id="path864"
       cx="50.088135"
       cy="75.132195"
       rx="48.08556"
       ry="48.012123"
       inkscape:export-xdpi="123.6188"
       inkscape:export-ydpi="123.6188" /></g><g
     inkscape:groupmode="layer"
     id="layer2"
     inkscape:label="fg"
     transform="translate(0,-25)"><g
       id="g862"
       transform="matrix(0.88918615,0,0,0.85804461,33.428474,15.137316)"
       style="fill:#363959;fill-opacity:1"><g
         id="g840"
         transform="translate(-32.755582,21.151586)"
         style="fill:#363959;fill-opacity:1"><path
           id="path830"
           d="m 73.3,49.1 c 3.4,-0.3 6.6,-5.1 8,-7.7 2.8,-5.2 6,-13.2 3.1,-19 -3,-6 -9.7,-6 -15.5,-6 -4.2,0 -7.7,-2.6 -11.9,-3.4 -3.2,-0.6 -6.6,-0.7 -9.8,-0.3 -2.7,0.3 -5.4,1 -7.9,2 -1.3,0.5 -2.6,1.2 -4,1.7 -2.8,1.2 -2.9,0.8 -5.3,0.5 -5.9,-0.6 -11.1,5.5 -13.3,10.4 -1.2,2.6 -1.9,5.7 -1,8.5 1,3 3.5,4.7 5.5,6.9 2.4,2.8 5.1,8.5 9.3,7.6 1,4.5 1.5,9 1.4,13.6 0,0 -0.1,0 -0.1,0 0,0 -0.1,0 -0.1,0 -0.1,0 -0.1,0 -0.2,0 -0.1,0 -0.2,0 -0.3,0 0,0 0,0 0,0 -0.9,0 -1.8,0.5 -2,1.5 -0.1,0.3 -0.1,0.5 0,0.8 -0.1,3 -0.2,6 -0.2,9 0,0.8 0.6,1.6 1.3,1.8 0,0.3 0.1,0.6 0.2,0.9 0.2,0.5 -1.1,2.9 -1.3,3.3 -0.5,1.2 -1,2.3 -1.4,3.5 -0.9,2.3 2.8,3.2 3.6,1 0.7,-1.8 1.5,-3.5 2.1,-5.3 0.3,-0.9 0.6,-1.7 0.6,-2.5 12.2,2.7 25.9,3.2 37.7,-1.2 0,0 0,0 0,0 1.6,2.8 1.8,6.2 3.6,8.9 1.3,2 4.6,0.1 3.2,-1.9 -1.7,-2.6 -2,-5.7 -3.4,-8.5 0.8,-0.4 1.4,-0.9 1.7,-1.6 1,-2.2 -0.6,-7 -0.8,-9.5 C 76,63.2 75,62 73.8,62.4 v 0 c -1.3,-4.3 -1,-8.9 -0.5,-13.3 z M 32.7,73.8 c 0,-1.8 0.1,-3.5 0.1,-5.3 12.5,4.5 27.3,2.8 39.7,-1.6 0,1.8 0.1,3.9 0.6,5.1 -0.9,0.3 -2.2,1.1 -2.7,1.3 -12.1,4.2 -25.6,3.5 -37.7,0.5 z m 41.2,-2.1 c 0,0 0.1,-0.1 0.1,-0.1 -0.1,0 -0.1,0.1 -0.1,0.1 z M 35.6,65.5 c 0.3,-5.8 -0.3,-11.6 -1.8,-17.2 1,-1.7 0.8,-4.2 0.7,-6 -0.2,-3 -3.7,-13 0.2,-14.7 2.2,-0.9 0.3,-4.2 -1.9,-3.2 -4.2,1.8 -3.6,8.2 -3.1,11.8 0.3,1.9 2.7,9.9 0,10.4 -2.4,0.4 -4.5,-4.8 -5.9,-6.4 -1.4,-1.5 -3.3,-2.6 -4.2,-4.5 -1.3,-2.7 -0.2,-5.6 1.1,-8 2.1,-3.6 5.2,-6.9 9.5,-6.6 5.3,0.4 9.6,-3.1 14.8,-4.2 4,-0.9 8,-1 11.9,-0.1 3.4,0.7 6.2,3.1 9.5,3.6 3.2,0.5 6.3,-0.8 9.6,0.1 6.3,1.7 6.3,7.2 4.7,12.4 -0.8,2.6 -3,10 -5.9,11.1 C 70.5,45.7 72,36.3 72,33.7 72,29.9 71.7,24 67,23.2 c -2.4,-0.4 -3.4,3.2 -1,3.6 4.7,0.8 0.7,16.4 3.7,20.5 0,0.1 0,0.1 0,0.2 -0.6,5.4 -1.1,11 0.5,16.2 -10.8,3.6 -23.7,5.2 -34.6,1.8 z"
           inkscape:connector-curvature="0"
           style="fill:url(#linearGradient961);fill-opacity:1;stroke:none;stroke-opacity:1" /><path
           id="path832"
           d="m 51,48.5 c 3,-0.2 3.5,-4 5,-8.5 1.5,-4.5 -6.2,-3.8 -9.5,-2.5 -3.3,1.3 -1.2,5.2 -1.2,5.2 0,0 2.7,6.1 5.7,5.8 z"
           inkscape:connector-curvature="0"
           style="fill:#363959;fill-opacity:1" /><circle
           id="circle834"
           r="1.8"
           cy="32.400002"
           cx="62.099998"
           style="fill:#363959;fill-opacity:1" /><circle
           id="circle836"
           r="1.8"
           cy="32.400002"
           cx="38.799999"
           style="fill:#363959;fill-opacity:1" /><path
           id="path838"
           d="m 60.5,46.8 c -4,4.7 -13.8,5.9 -18.4,1.2 -1.1,-1.1 -2.9,0.6 -1.8,1.8 5.5,5.6 17,4.6 22,-1.2 1,-1.3 -0.8,-3 -1.8,-1.8 z"
           inkscape:connector-curvature="0"
           style="fill:#363959;fill-opacity:1" /></g></g></g></svg>